<?xml version="1.0" encoding="UTF-8" standalone="no"?>
<svg
   xmlns:dc="http://purl.org/dc/elements/1.1/"
   xmlns:cc="http://creativecommons.org/ns#"
   xmlns:rdf="http://www.w3.org/1999/02/22-rdf-syntax-ns#"
   xmlns:svg="http://www.w3.org/2000/svg"
   xmlns="http://www.w3.org/2000/svg"
   viewBox="0 0 682.66669 682.66669"
   height="682.66669"
   width="682.66669"
   id="svg2"
   version="1.1">
  <metadata
     id="metadata8">
    <rdf:RDF>
      <cc:Work
         rdf:about="">
        <dc:format>image/svg+xml</dc:format>
        <dc:type
           rdf:resource="http://purl.org/dc/dcmitype/StillImage" />
        <dc:title></dc:title>
      </cc:Work>
    </rdf:RDF>
  </metadata>
  <defs
     id="defs6" />
  <g
     transform="matrix(1.0001473,0,0,1,-0.12861982,0.49867095)"
     id="g817">
    <path
       id="path839"
       d="M 303.33334,680.70473 C 265.18714,676.94778 230.33018,666.98774 194.00001,649.46376 156.49126,631.37129 129.4614,612.1919 99.920531,582.70843 53.728882,536.60655 23.28931,482.05058 8.0697684,418.08695 4.9428924,404.94553 3.8422821,397.62312 1.9442123,377.33335 -4.6923952,306.39009 6.7837356,244.62937 37.712435,184.84067 84.92679,93.569967 169.48267,28.860612 269.62305,7.3629525 287.56028,3.5122736 321.14256,0 340.02325,0 c 74.54163,0 146.5817,24.057437 206.3138,68.897508 17.95237,13.476608 42.05373,36.346722 56.66036,53.765802 40.97795,48.86811 68.67595,112.95882 77.21563,178.67003 2.45678,18.90458 2.0432,65.12583 -0.76954,86.00001 -9.87741,73.30347 -44.37352,142.93004 -96.77681,195.33334 -53.49091,53.49091 -124.57654,88.67259 -196.6764,97.339 -19.77836,2.37736 -61.99125,2.73436 -82.65695,0.69904 z"
       style="fill:#86c8e4;stroke-width:1.33333337" />
    <path
       id="path837"
       d="M 319.33334,681.40581 C 277.11333,677.89044 232.86389,666.3359 196.57621,649.35113 103.06278,605.58134 33.5151,519.83771 10.006051,419.33335 -2.9096934,364.1168 -2.4782589,313.87844 11.388222,258.38654 42.02664,135.7755 139.72855,39.719909 263.33562,10.6846 c 13.27174,-3.1175331 35.17704,-6.6845999 41.05003,-6.6845999 2.42791,0 4.98436,-0.5580502 5.68103,-1.2401116 1.98236,-1.94079993 62.63713,-2.31067662 61.44061,-0.3746688 -0.35756,0.5785375 5.33744,1.767918 12.65555,2.6430679 37.19583,4.4481325 84.15444,19.8170254 113.95979,37.2974334 l 9.45596,5.545778 0.18596,18.397585 c 0.10227,10.118672 0.88465,25.597586 1.7386,34.397586 0.85395,8.8 1.61508,25.9 1.69141,38 0.16083,25.4943 -0.96072,29.06258 -10.0808,32.07247 -9.70346,3.20244 -10.22505,7.70685 -1.20533,10.40923 7.37828,2.21058 16.73445,11.35232 18.61153,18.18497 2.95279,10.74825 0.41132,23.48708 -5.6938,28.53961 -2.10265,1.74012 -2.0281,2.11832 1.0513,5.33334 1.82293,1.90321 4.24626,5.69112 5.38516,8.41756 2.28594,5.47239 2.73454,18.07917 0.87416,24.56597 l -1.19658,4.1722 12.53092,-0.18101 c 11.46695,-0.16563 12.91335,-0.48621 17.03511,-3.77568 l 4.5042,-3.59467 3.83031,2.928 c 6.11349,4.67338 13.13621,11.83288 17.25848,17.59468 5.36623,7.5005 10.01925,13.07672 21.13919,25.33334 5.32258,5.86666 11.72137,13.02789 14.21952,15.91385 8.46872,9.78335 24.01566,24.7723 31.19775,30.07802 3.93273,2.90528 7.51081,5.86545 7.9513,6.57818 1.1846,1.91674 15.93547,12.95247 20.396,15.25911 7.27064,3.7598 7.61912,4.92207 5.7688,19.24079 -5.67313,43.90189 -25.29324,94.48925 -52.59061,135.59672 -36.1968,54.50923 -89.39426,98.28376 -150.60653,123.92943 -46.58739,19.51838 -107.06852,29.90427 -152.2413,26.14303 z"
       style="fill:#75c2e1;stroke-width:1.33333337" />
    <path
       id="path835"
       d="M 324.66668,681.2044 C 287.71693,679.2 244.90772,669.44538 211.39369,655.39373 167.90538,637.16012 134.28224,614.50974 100.61032,580.76406 41.314091,521.33794 8.0588097,447.15254 1.2379364,359.08561 -1.7158666,320.94792 6.7728105,265.90165 21.980058,224.57979 33.63984,192.89729 55.976893,153.62118 77.365519,127.19339 88.243096,113.75305 112.33584,89.643912 125.6802,78.845819 155.94886,54.352789 196.41063,32.1605 232.66667,20.166361 260.16934,11.067992 294.01292,4.4145987 315.96504,3.7905285 l 7.3683,-0.2094716 -6.66666,-0.9143901 c -3.66667,-0.5029146 6.53333,-0.905093 22.66666,-0.8937299 17.31247,0.012194 25.78171,0.3784462 20.66667,0.8937299 l -8.66666,0.8730696 8.66666,0.2284303 c 4.76667,0.1256373 13.62654,0.9215009 19.6886,1.7685872 l 11.02194,1.540157 -0.69244,4.1282111 c -2.59126,15.448694 -3.23822,68.92833 -1.14675,94.794878 0.88943,11 1.75236,26.7952 1.91763,35.10043 0.29468,14.80779 0.23181,15.16412 -3.24423,18.3873 -2.47131,2.29152 -3.54475,4.63294 -3.54475,7.73193 0,7.76621 -3.80157,15.8064 -10.85693,22.962 -10.29524,10.44152 -8.32772,12.99707 12.65992,16.44356 22.89855,3.76029 42.42808,15.23313 52.15245,30.63752 3.10886,4.92475 7.50719,17.04312 9.28887,25.59283 l 0.734,3.52224 7.67751,-3.15725 c 4.22264,-1.7365 8.42752,-3.1715 9.34419,-3.1889 2.42801,-0.0461 2.04193,-1.94541 -0.94494,-4.64848 -1.43637,-1.2999 -3.60652,-5.3589 -4.82254,-9.02001 -2.10638,-6.34171 -2.08635,-8.32571 0.20553,-20.36316 0.87863,-4.61476 -0.62913,-6.44314 -10.73589,-13.0189 -12.30574,-8.00646 -15.70534,-17.20744 -9.21,-24.92669 6.64256,-7.89424 9.269,-8.48997 33.20168,-7.53084 11.82798,0.47403 23.51153,1.4372 25.96344,2.1404 12.0254,3.44884 20.00938,13.69155 20.00938,25.67019 0,7.63878 -1.80913,12.58912 -6.33428,17.3325 l -3.49796,3.66667 3.51206,3.66667 c 7.40286,7.72876 9.97558,22.86148 5.64769,33.2196 -2.19627,5.2564 -18.04563,24.54129 -25.67385,31.23897 -7.20534,6.32638 -19.89742,11.8831 -26.98699,11.81519 -6.84355,-0.0656 -15.03957,-2.65795 -18.60523,-5.88481 -2.30002,-2.08151 -2.75144,-1.71739 -8.52097,6.87321 -6.58092,9.79875 -20.03515,24.44207 -27.53738,29.97115 l -4.66356,3.43701 3.78774,5.16484 c 9.26118,12.62827 14.35822,21.97935 34.239,62.81512 11.62967,23.88775 22.03356,44.32098 23.11975,45.40717 1.74428,1.74428 2.49286,1.68074 6.41109,-0.54411 3.31691,-1.8834 5.84324,-5.37783 10.01267,-13.84949 5.69548,-11.57238 8.86969,-14.45819 16.06313,-14.60371 2.09672,-0.0424 3.77479,-1.63198 5.69376,-5.39347 3.11893,-6.11363 3.73288,-6.30937 8.36383,-2.66667 1.86456,1.46667 3.76977,2.66667 4.2338,2.66667 0.46402,0 2.64248,1.32991 4.84101,2.95535 3.34035,2.46962 4.4242,2.68876 6.59459,1.33333 4.27305,-2.66856 6.06837,-1.97111 15.55756,6.04383 9.88667,8.35065 9.74121,8.2326 20.40921,16.56469 14.27036,11.14568 29.30878,22.32916 31.86706,23.69832 1.42542,0.76286 3.38846,2.16755 4.3623,3.12154 2.84387,2.78582 28.91366,19.60992 32.49865,20.97293 1.7996,0.6842 3.272,2.17597 3.272,3.31504 0,3.62848 -8.02525,18.1766 -18.83663,34.14693 -32.21451,47.58658 -76.18436,85.63674 -128.49671,111.19713 -32.54144,15.90011 -62.52573,25.51461 -95.33334,30.56883 -7.7,1.18622 -17,2.72528 -20.66667,3.4201 -8.73146,1.65462 -30.97554,2.19555 -49.33333,1.1997 z m 27.94081,-367.23152 c 5.2675,-6.89695 6.03978,-26.31939 1.40306,-35.28583 -4.81944,-9.31979 -17.97106,-20.59523 -20.76239,-17.80051 -1.21032,1.2118 -1.99806,54.15475 -0.83379,56.03856 0.39187,0.63404 4.64204,0.82307 9.44484,0.42006 6.56228,-0.55066 9.23334,-1.3887 10.74828,-3.37228 z"
       style="fill:#66bbdd;stroke-width:1.33333337" />
    <path
       id="path833"
       d="m 326.07469,681.71312 c -7.29225,-0.26542 -13.89225,-0.98258 -14.66667,-1.5937 -0.77441,-0.61113 -5.90801,-1.53202 -11.40801,-2.04644 -22.77125,-2.12978 -58.54495,-11.1383 -83.26582,-20.96797 C 146.0958,629.0173 88.26971,579.78578 49.233335,514.49944 27.306705,477.82827 12.090377,435.09435 5.9995795,393.08067 4.7971312,384.78631 3.2353152,376.10211 2.5288772,373.78244 0.873177,368.34577 0.85056484,314.42317 2.5016625,308.88425 3.1931324,306.56458 5.0436675,296.40754 6.6139629,286.31304 20.712985,195.67873 74.458957,112.1597 152.00001,60.389109 c 25.11225,-16.766298 55.09784,-31.295583 82.89253,-40.16495 12.15671,-3.87924 43.73268,-11.4354884 44.41994,-10.6298567 0.19034,0.2231339 -0.18154,12.4056987 -0.8264,27.0723657 -1.46964,33.424884 -1.51578,25.764246 0.59822,99.333332 0.21534,7.49375 -0.22381,9.29824 -3.24484,13.33334 -2.89866,3.87164 -3.63153,6.59745 -4.30178,16 -0.78448,11.00487 -3.07899,20.82689 -6.24906,26.75023 -2.3384,4.36934 0.46788,6.22917 12.7266,8.43434 15.16499,2.72798 23.87431,3.37524 64.30893,4.77934 40.77506,1.4159 54.25918,3.57817 70.13825,11.24712 11.33412,5.4739 22.20253,15.75201 26.85015,25.39178 1.78475,3.70179 4.54843,12.00133 6.14153,18.44342 2.84632,11.50979 2.94554,11.67744 5.72124,9.66797 1.55359,-1.1247 5.76427,-3.60101 9.35708,-5.50289 5.39856,-2.85777 7.08728,-3.20513 9.7294,-2.00131 8.70511,3.96632 9.68762,-2.02518 1.82232,-11.11281 -6.51053,-7.52233 -8.19233,-15.44195 -4.70949,-22.17702 5.75709,-11.13298 4.56051,-16.0911 -4.47024,-18.52282 -6.39867,-1.72299 -13.90437,-9.332 -13.90437,-14.09575 0,-7.96457 10.49734,-12.35785 32.46872,-13.58861 25.44716,-1.42544 36.77961,7.41948 35.6276,27.80716 -0.46364,8.20537 -0.95406,9.53945 -5.06639,13.78229 l -4.55304,4.69756 4.33301,4.47055 c 11.14922,11.50307 9.90546,31.34711 -2.69306,42.96743 -21.72767,20.04065 -43.99374,26.82008 -56.57338,17.22512 -2.40105,-1.83138 -4.69748,-3.32976 -5.10317,-3.32976 -0.40569,0 -2.89863,4.55389 -5.53985,10.11974 -5.99893,12.64152 -19.46337,27.22314 -31.79871,34.43711 -4.82262,2.82037 -8.7684,5.54429 -8.7684,6.05313 0,0.50886 1.56496,2.37977 3.47769,4.15761 7.96604,7.40421 16.38792,21.97598 36.29176,62.79308 11.56102,23.70829 21.99396,45.16904 23.18434,47.69055 2.0991,4.44641 2.05156,4.80796 -1.57816,12 -4.32664,8.57296 -8.0423,20.32701 -8.0423,25.4409 0,2.69272 2.796,6.2796 11.66667,14.96678 6.41667,6.28393 16.16667,14.9773 21.66667,19.3186 5.5,4.34128 10.89118,8.97893 11.98042,10.30589 1.08924,1.32695 4.38924,3.92751 7.33334,5.77902 2.94409,1.8515 8.6529,6.19426 12.68624,9.65056 4.03333,3.4563 8.77358,7.02924 10.53389,7.93986 1.76032,0.91063 7.87735,5.03627 13.59342,9.1681 5.71606,4.13182 13.7211,9.61241 17.78898,12.17908 4.06787,2.56666 7.40084,5.20882 7.40659,5.87148 0.0133,1.49334 -8.36916,9.34944 -20.65621,19.35993 -35.20001,28.67811 -79.19757,50.5761 -124.88856,62.15816 -15.93216,4.0386 -42.12073,8.61043 -49.32264,8.61043 -3.18016,0 -4.95185,0.53019 -4.45548,1.33333 0.52588,0.85088 -3.48616,1.33334 -11.08797,1.33334 -6.55161,0 -13.63703,0.19402 -15.74536,0.43116 -2.10834,0.23714 -9.79974,0.21401 -17.09199,-0.0513 z m 23.06464,-210.94746 c 3.37316,-1.72086 5.81803,-4.30839 7.41314,-7.84568 2.21489,-4.91176 2.24229,-6.09827 0.39486,-17.09899 -4.77516,-28.43427 -14.69208,-58.70326 -20.47391,-62.49166 -1.85429,-1.21498 -3.76938,-1.81068 -4.25576,-1.32377 -0.48637,0.48691 -0.88432,20.65693 -0.88432,44.82227 0,48.39707 -0.35228,46.44443 8.38646,46.48511 2.41255,0.0107 6.65133,-1.13504 9.41953,-2.54728 z m 8.86068,-153.25673 c 3.16952,-0.66739 4.77908,-2.3648 7.75247,-8.17559 3.43732,-6.71746 3.71725,-8.35029 3.33333,-19.44257 -0.37178,-10.74113 -0.87105,-12.83653 -4.41913,-18.54652 -2.2,-3.54052 -6.88875,-8.42291 -10.41944,-10.84977 -6.93307,-4.76554 -20.24738,-9.6039 -21.89772,-7.95754 -0.5589,0.55755 -1.19599,15.66483 -1.41576,33.57174 l -0.39958,32.558 11.73291,-0.15775 c 6.45311,-0.0868 13.53292,-0.53677 15.73292,-1 z"
       style="fill:#57b5da;stroke-width:1.33333337" />
    <path
       id="path831"
       d="m 319.33334,680.00002 c 5.14784,-0.9217 5.06828,-0.96149 -2.28749,-1.14412 -10.97263,-0.27242 -35.40431,-3.82798 -52.21933,-7.5995 C 215.89866,660.28214 163.84534,634.52989 124.40736,601.78709 70.582612,557.09989 30.026426,493.24632 13.417691,427.03972 8.4611936,407.28188 5.7569133,392.78056 4.5546119,379.51271 3.972206,373.08564 3.1876536,369.80632 2.4941298,370.9002 1.8725314,371.88063 1.4067832,358.72388 1.447464,341.33334 c 0.043792,-18.72057 0.5345638,-30.2599 1.2192028,-28.66666 0.9024296,2.10006 1.1658733,1.53346 1.2398813,-2.66667 0.1403904,-7.96751 5.0522814,-36.706 8.8018989,-51.49815 7.645382,-30.16085 24.660142,-70.27669 40.082079,-94.50185 19.290274,-30.30165 46.082465,-60.76621 71.174244,-80.930024 7.71938,-6.203313 15.05123,-11.83469 16.29301,-12.514172 2.08617,-1.141525 2.25444,0.685448 2.21406,24.038737 -0.024,13.900789 0.43104,26.042309 1.0113,26.981159 0.58024,0.93885 1.5056,7.71839 2.05636,15.06564 1.03777,13.84428 3.85352,35.47778 6.42435,49.35866 0.8149,4.4 2.05817,11.37953 2.7628,15.51008 0.70464,4.13054 2.1794,10.05598 3.27725,13.16764 1.09787,3.11165 1.99611,7.60668 1.99611,9.98894 0,2.38227 0.9,6.88227 2,10 1.1,3.11774 2.00369,8.14318 2.00821,11.16765 0.004,3.02446 0.94917,7.29902 2.09924,9.49902 2.06057,3.94175 2.79097,6.26626 8.99048,28.6126 3.11665,11.23412 3.13267,11.25814 4.00095,6 0.47948,-2.9036 0.87837,-9.02926 0.88644,-13.6126 0.008,-4.58333 0.49989,-8.33333 1.09292,-8.33333 0.59302,0 1.77621,-5.55 2.62929,-12.33333 2.8146,-22.38065 4.02989,-27.65719 7.99172,-34.69855 3.17384,-5.64088 5.40029,-7.73002 11.68903,-10.96812 l 7.76841,-4 72.08832,0.37022 c 39.64858,0.20363 77.78833,0.70831 84.75499,1.12154 36.44078,2.16145 61.2316,14.5368 71.09065,35.48774 1.81702,3.86129 4.62196,13.56622 6.2332,21.56655 l 2.92952,14.54607 -3.64166,11.19493 c -6.44312,19.80698 -18.99664,34.94382 -36.71519,44.27059 -4.70974,2.47915 -8.80652,4.71121 -9.10393,4.96015 -0.29741,0.24893 2.50463,3.67263 6.22675,7.60823 10.35365,10.94745 14.95178,19.05524 38.49997,67.88612 l 21.79567,45.19675 -8.70727,11.1509 c -4.789,6.13302 -10.7242,12.39746 -13.18936,13.921 -13.8872,8.58276 -32.61096,10.51947 -44.48673,4.60152 -8.01868,-3.99588 -15.33312,-11.93053 -18.20594,-19.74969 -1.10452,-3.00627 -6.86525,-19.26595 -12.8016,-36.13262 -12.64386,-35.92438 -17.72978,-47.13172 -25.28213,-55.71164 -5.78586,-6.57306 -9.61982,-7.9005 -11.42308,-3.95502 -0.58655,1.28333 -1.20966,23.82138 -1.38467,50.08456 l -0.31823,47.75124 -4.57345,5.58209 c -2.51541,3.07016 -7.86364,10.68211 -11.88497,16.91544 -4.02134,6.23334 -8.34024,12.18658 -9.59759,13.22943 -1.25735,1.04285 -3.44733,4.29961 -4.86664,7.23724 l -2.58056,5.34113 6.40204,7.42943 c 3.52111,4.0862 7.26824,8.69528 8.32695,10.24243 8.47793,12.38923 56.19579,61.95063 80.73453,83.85368 4.92948,4.4 10.2482,9.20701 11.81939,10.68224 5.04072,4.7329 30.57176,25.44618 34.54115,28.02316 l 3.83681,2.49094 -8.96093,3.02276 c -17.14156,5.7823 -52.06879,12.13722 -69.37936,12.6234 l -8,0.22469 6,0.93281 c 3.37892,0.52532 -5.64923,0.93764 -20.66667,0.94387 -14.77066,0.007 -24.28747,-0.41493 -21.33334,-0.94387 z m 47.61217,-362.48641 c 4.57548,-1.78115 8.18069,-8.88644 10.48033,-20.65499 3.10243,-15.87694 -2.43201,-30.44226 -15.03679,-39.5731 -6.71705,-4.86582 -18.78022,-9.438 -25.66901,-9.72908 -5.16006,-0.21803 -5.30215,-0.102 -6.2565,5.11024 -1.29596,7.07793 -1.4097,65.26329 -0.13013,66.60117 1.38477,1.44795 32.1762,-0.0275 36.61216,-1.75424 z m 93.47172,-25.65024 c -5.49199,-1.58896 -9.75055,-7.07223 -9.75055,-12.55469 0,-3.34538 1.18754,-5.40456 5.21538,-9.04347 8.35782,-7.55081 10.04001,-8.10345 16.80344,-5.52048 3.23436,1.23521 6.86885,1.86663 8.07665,1.40315 3.24449,-1.24503 1.29239,-9.82552 -3.37039,-14.81454 -8.38096,-8.96736 -9.30154,-16.71352 -2.85841,-24.05185 7.26812,-8.27794 4.099,-17.74644 -6.9382,-20.72954 -8.40705,-2.27222 -11.15377,-3.85605 -12.7454,-7.3493 -2.12147,-4.65611 -0.71583,-6.75698 6.94583,-10.38123 17.91725,-8.47553 40.12473,-7.23211 49.15358,2.75217 8.56868,9.4754 8.1,25.64451 -1.01929,35.16543 l -3.26201,3.40568 4.67912,4.53517 c 10.67898,10.35049 9.63944,29.79789 -2.18415,40.86009 -5.76604,5.39474 -21.0018,13.09076 -31.14703,15.73325 -8.80522,2.29347 -11.40952,2.3808 -17.59857,0.59016 z"
       style="fill:#45abd4;stroke-width:1.33333337" />
    <path
       id="path829"
       d="M 226.66667,658.77638 C 198.29698,648.47026 180.87489,639.88129 156.75054,624.30817 89.446699,580.86118 38.694911,512.5321 16.529381,435.52304 10.171368,413.43359 5.3631574,386.44624 4.2615613,366.66668 3.3718349,350.69132 3.301621,350.38715 2.5687825,359.33335 c -0.4205031,5.13333 -0.764551,-2.96667 -0.764551,-18.00001 0,-17.00344 0.325934,-23.80605 0.8624353,-18 l 0.8624352,9.33334 0.2354491,-9.36831 c 0.3290334,-13.09196 2.4479515,-29.17799 6.3722469,-48.37568 3.704489,-18.12241 13.300375,-49.58935 15.12234,-49.58935 0.638402,0 1.451878,3.15 1.807724,7 0.355847,3.85 1.887727,12.4 3.404178,19 1.51645,6.6 2.780833,13.6798 2.809738,15.73288 0.02891,2.05308 0.972214,5.51131 2.096239,7.68494 1.124026,2.17361 2.585815,6.49382 3.248419,9.60045 2.367771,11.10129 4.199404,17.56575 5.380194,18.98852 0.659628,0.7948 2.408089,6.87173 3.885468,13.50431 1.47738,6.63256 3.906265,14.90562 5.397524,18.3846 1.491259,3.47896 2.71138,7.01405 2.71138,7.85575 0,2.03296 8.256143,23.40393 10.852154,28.09072 0.7643,1.37985 2.17349,5.27985 3.131533,8.66666 2.60018,9.19199 16.860687,43.35663 23.440597,56.15784 2.073159,4.03334 6.283429,13.03334 9.356154,20.00001 3.07273,6.96666 6.87775,14.46666 8.4556,16.66666 1.57785,2.2 4.02781,6.7 5.44436,10 2.43586,5.6746 8.00265,15.43376 19.56568,34.30066 2.79799,4.56536 5.08726,8.63965 5.08726,9.05398 0,0.41434 1.13248,2.37904 2.51661,4.36602 1.38413,1.98697 6.60335,9.91268 11.59826,17.61268 4.99489,7.7 11.06242,16.25173 13.48338,19.00384 2.42096,2.75212 4.40175,5.86793 4.40175,6.92405 0,1.05611 3.45875,6.00439 7.68609,10.99616 4.22736,4.99178 12.15494,15.07595 17.61683,22.40928 10.06349,13.5116 20.15903,25.74556 30.25184,36.65982 3.05512,3.30377 8.05616,9.15685 11.11343,13.00685 6.85753,8.63567 5.89845,8.76343 -13.33486,1.77636 z M 207.21414,508.7689 c -5.99192,-2.60876 -13.20963,-10.60423 -15.01633,-16.63447 -1.13411,-3.78532 -1.21642,-8.68484 -0.29706,-17.68515 0.69942,-6.84709 1.64487,-21.44926 2.10102,-32.44926 0.45616,-11.00001 1.06304,-22.40001 1.34864,-25.33334 0.61016,-6.26684 3.06572,-85.06086 4.48765,-144 0.92828,-38.47729 1.19323,-41.71058 3.83435,-46.79291 4.25188,-8.18192 10.95816,-13.41322 19.2437,-15.0112 16.72432,-3.22555 26.57171,-3.52031 91.75057,-2.74643 75.9188,0.90141 78.90675,1.20108 96.62841,9.69109 17.71507,8.48686 28.06425,21.55259 32.07922,40.4997 6.87739,32.45512 -5.99555,59.66083 -35.49052,75.0058 -5.80275,3.01892 -10.55044,5.93364 -10.55044,6.47717 0,0.54352 2.77484,3.66315 6.1663,6.9325 3.39147,3.26936 8.73579,9.86327 11.87626,14.65313 6.48578,9.89216 48.92252,97.03551 48.33879,99.26313 -0.95155,3.63124 -20.9318,20.16808 -27.13355,22.45732 -10.50514,3.87776 -24.00583,4.37949 -31.39234,1.16664 -12.06885,-5.2495 -14.41525,-9.08328 -30.56184,-49.93471 -8.1088,-20.51556 -16.52412,-40.82887 -18.7007,-45.14066 -7.06426,-13.9942 -19.84438,-24.46604 -24.35722,-19.95792 -1.12357,1.1224 -1.75831,15.92668 -2.23571,52.14448 l -0.66666,50.57707 -13.18323,12.18222 c -13.82255,12.77298 -21.74741,17.4088 -35.25005,20.62024 -5.8748,1.39725 -9.20646,1.47128 -14.90006,0.3311 -6.36842,-1.27532 -9.6774,-1.00469 -25.14841,2.05684 -19.83384,3.9249 -26.89379,4.2734 -32.97079,1.62762 z M 372.79491,317.05008 c 9.06396,-4.91762 12.61178,-33.2267 5.88793,-46.9815 -4.26289,-8.72046 -11.85884,-15.89229 -21.86108,-20.64048 -9.67132,-4.59109 -23.31111,-7.47103 -25.41835,-5.36689 -0.89604,0.89473 -1.5456,14.9194 -1.79675,38.79356 L 329.2133,320.247 348.94,319.76841 c 15.26247,-0.37028 20.66091,-0.98544 23.85491,-2.71833 z m 83.81117,-30.98947 c -4.7833,-4.78329 -4.17994,-9.13596 2.23042,-16.09039 5.9986,-6.50772 7.76356,-6.97618 14.95786,-3.97021 6.59258,2.75456 9.86088,2.52009 10.90911,-0.78259 1.57197,-4.95285 -0.65217,-11.7059 -5.36185,-16.27989 -4.30616,-4.18208 -7.3416,-9.75102 -7.3416,-13.46914 0,-0.93024 2.4,-4.29101 5.33333,-7.46838 5.77787,-6.25855 6.29651,-8.47668 3.51736,-15.04283 -2.74092,-6.47581 -6.68991,-9.26911 -14.11233,-9.98231 -7.04984,-0.67741 -11.63974,-4.03608 -10.2971,-7.53493 1.24348,-3.24047 10.4227,-8.30865 17.98583,-9.93067 25.16892,-5.39776 41.57291,3.706 41.57291,23.07182 0,8.00116 -1.94116,13.1424 -6.53016,17.29538 -3.72008,3.36662 -3.58418,4.0981 1.75312,9.43538 9.46017,9.46017 9.08322,27.74703 -0.77991,37.83528 -8.68723,8.88549 -27.98464,16.18621 -42.78379,16.18621 -6.48297,0 -8.32625,-0.54577 -11.0532,-3.27273 z"
       style="fill:#3ca5d0;stroke-width:1.33333337" />
    <path
       id="path827"
       d="m 219.33334,497.20383 c -4.52961,-2.65107 -10.13945,-8.34821 -12.3042,-12.49567 -2.16389,-4.14584 -2.1216,-21.8736 0.47091,-197.37482 0.85701,-58.01629 1.10176,-60.18777 7.5636,-67.10849 4.1648,-4.46055 8.23484,-6.31519 21.02569,-9.58099 10.93874,-2.79291 13.0245,-2.85331 79.23923,-2.29468 64.1082,0.54087 68.63486,0.73708 79.0011,3.42456 21.99841,5.70316 35.78104,15.48664 43.47068,30.85732 5.49791,10.98968 8.09404,24.75788 7.22416,38.31236 -1.35211,21.06867 -17.1618,42.58398 -39.01466,53.09478 -5.50541,2.648 -10.00984,5.07769 -10.00984,5.3993 0,0.32162 3.79768,4.32975 8.4393,8.90697 4.64161,4.57721 10.55258,11.95246 13.13549,16.38942 5.00095,8.5907 46.42522,93.64534 46.42522,95.32286 0,1.66336 -19.00406,15.66387 -24.21919,17.84255 -8.19816,3.42488 -22.744,5.14936 -29.06884,3.44625 -6.0914,-1.64024 -15.13928,-9.05923 -18.151,-14.88327 -1.06319,-2.05596 -6.77458,-16.20105 -12.69198,-31.43353 -14.59565,-37.57192 -22.2592,-53.41894 -29.18005,-60.33979 -6.74336,-6.74336 -16.86238,-11.71487 -19.16391,-9.41529 -1.07832,1.07741 -1.63616,16.61501 -1.90439,53.04388 -0.2614,35.49992 -0.84301,52.0788 -1.87044,53.31677 -2.37098,2.85687 -23.73981,16.47091 -31.35885,19.97867 -9.8032,4.51333 -19.75609,5.89673 -26.30604,3.6564 -4.41189,-1.50904 -6.6424,-1.50304 -14,0.0376 -13.02864,2.72817 -33.52418,3.78597 -36.75199,1.89681 z M 361.05648,319.98194 c 16.79557,-1.7693 19.65075,-3.41773 22.42019,-12.94426 3.14718,-10.82598 2.83213,-25.88522 -0.73867,-35.30651 -3.802,-10.03131 -12.83932,-19.90759 -22.74675,-24.85839 -9.6388,-4.81656 -25.95065,-8.11336 -28.33685,-5.72716 -2.28879,2.28879 -3.45102,18.318 -3.55952,49.09248 -0.0803,22.76756 0.22732,27.22696 2.00037,29 2.47293,2.47294 12.30508,2.70915 30.96123,0.74384 z m 96.88294,-36.588 c -1.8,-1.8 -3.27274,-3.84322 -3.27274,-4.5405 0,-1.61555 9.0082,-12.49291 11.56566,-13.96547 1.15844,-0.66703 4.04364,-0.26685 7.20981,1 7.6614,3.06548 10.39421,2.71224 12.02687,-1.55463 1.93173,-5.04845 -0.33842,-12.06114 -6.16019,-19.02934 -2.55319,-3.05597 -4.64215,-6.94275 -4.64215,-8.63733 0,-1.69457 2.1,-5.59457 4.66667,-8.66666 5.11837,-6.1263 5.58503,-8.60599 2.83088,-15.04283 -2.17368,-5.08021 -9.07839,-11.92055 -11.67007,-11.56124 -7.37594,1.02257 -13.82661,-2.10944 -12.33741,-5.99023 1.13749,-2.96429 9.97865,-8.15676 16.76703,-9.84738 16.69312,-4.15739 32.42776,0.0835 38.16164,10.2856 5.28269,9.39929 3.58297,23.51796 -3.61556,30.03254 -3.72008,3.36662 -3.58418,4.0981 1.75312,9.43538 12.7676,12.76761 7.48044,35.82661 -10.29378,44.89435 -6.91108,3.52576 -20.93897,6.40869 -31.32312,6.43733 -7.15174,0.0197 -8.87826,-0.46117 -11.66666,-3.24959 z"
       style="fill:#4282b5;stroke-width:1.33333337" />
    <path
       id="path825"
       d="m 219.33334,497.20383 c -4.52961,-2.65107 -10.13945,-8.34821 -12.3042,-12.49567 -1.82212,-3.49101 -1.964,-12.1519 -1.20139,-73.33333 2.04742,-164.25361 2.38812,-178.48493 4.38968,-183.35662 2.26327,-5.50868 6.44934,-10.24442 11.27523,-12.7558 5.18215,-2.69679 26.12724,-7.69356 28.47415,-6.79298 1.78517,0.68504 2.0332,9.05416 2.0332,68.60514 0,37.30371 0.39636,85.0127 0.8808,106.01996 0.81777,35.46208 1.05607,38.25067 3.33024,38.97246 1.34719,0.42758 2.82279,2.38744 3.27912,4.35522 0.45632,1.96779 1.55833,4.1778 2.44891,4.91114 0.89056,0.73333 2.04932,3.06017 2.575,5.17076 0.52568,2.11057 2.92877,6.92169 5.34021,10.69137 2.41143,3.76968 5.03335,8.64284 5.82647,10.82924 1.17234,3.23179 1.46565,0.73342 1.56817,-13.35804 1.04068,-143.02496 1.69557,-206.96429 2.13384,-208.33334 0.34939,-1.0914 3.32373,-1.66667 8.61724,-1.66667 5.28049,0 8.27717,0.57795 8.64163,1.66667 0.48774,1.457 1.8401,143.30885 1.97621,207.28824 l 0.0488,22.95489 14.33333,0.37844 c 13.27395,0.35047 14.33334,0.57377 14.33334,3.0212 0,1.81996 -3.321,4.86429 -10.66667,9.77807 -21.18841,14.17366 -36.04055,19.12058 -46.58135,15.51521 -4.41189,-1.50904 -6.6424,-1.50304 -14,0.0376 -13.02864,2.72817 -33.52417,3.78597 -36.75199,1.89681 z m 189.4997,-16.43775 c -5.76459,-2.11972 -13.39853,-8.86589 -16.29949,-14.404 -1.0481,-2.00085 -6.74714,-16.10085 -12.66454,-31.33333 -15.00385,-38.62271 -22.32018,-53.62295 -29.61021,-60.70804 -5.4108,-5.2587 -13.74695,-10.36011 -19.99247,-12.23466 -2.01537,-0.60489 -2.33615,-1.95268 -2,-8.40324 l 0.40035,-7.6828 13.21841,-0.38425 c 19.65951,-0.57148 30.5777,4.05863 40.07308,16.99392 3.73818,5.0924 24.82151,48.36621 42.09004,86.39034 l 3.78456,8.33333 h 17.41695 c 16.00891,0 17.41696,0.19789 17.41696,2.44777 0,3.6511 -18.76328,17.13276 -27.1004,19.472 -11.0218,3.09252 -20.91496,3.65242 -26.73324,1.51296 z M 381.99383,311.5538 c 5.42228,-12.97732 4.86766,-32.66224 -1.26096,-44.75652 -3.64898,-7.2009 -12.72348,-16.04452 -20.57187,-20.04848 -6.51741,-3.32493 -21.82824,-7.05147 -26.65224,-6.48694 -2.3411,0.27396 -3.59544,-0.29143 -3.88056,-1.74915 -0.57018,-2.91512 9.74413,-4.0089 32.37181,-3.43288 19.38106,0.49338 27.97692,2.88099 36.91526,10.25366 10.76769,8.8816 15.80734,28.61867 11.28213,44.18487 -3.87188,13.31881 -14.55204,24.29168 -25.34903,26.04378 l -4.85878,0.78847 z m 76.96953,-26.96272 c -4.32485,-3.02924 -3.70124,-8.29659 1.70723,-14.42019 5.48143,-6.20623 8.31979,-5.75349 8.91117,1.42135 0.40272,4.88597 0.72776,5.19457 8.75159,8.30904 4.58333,1.77902 8.33333,3.65052 8.33333,4.15886 0,2.98996 -23.54825,3.44126 -27.70332,0.53094 z m 31.25888,-16.14663 c -0.48889,-0.48888 -0.88889,-2.91868 -0.88889,-5.39955 0,-5.95917 -3.20307,-11.96466 -9.51512,-17.84008 -6.16828,-5.74159 -6.61897,-9.92295 -1.69969,-15.76917 4.65496,-5.53211 6.95673,-5.26683 7.46765,0.86064 0.38756,4.64786 0.80067,5.07173 6.50696,6.67632 8.22043,2.31157 13.36276,7.87521 14.20772,15.37177 0.74012,6.56631 -1.95736,13.33106 -6.227,15.61611 -2.89653,1.55017 -8.50968,1.82592 -9.85163,0.48396 z m -2.88889,-45.77778 c -0.45323,-0.73333 -0.45821,-1.92526 -0.0107,-2.64874 1.61734,-2.61692 -2.00881,-11.25918 -6.77002,-16.1351 l -4.86742,-4.98469 4.37854,-2.26424 c 10.75192,-5.56003 23.56917,1.19983 24.91504,13.14025 0.61653,5.46994 0.26853,6.51738 -3.37628,10.16219 -2.98915,2.98915 -5.30394,4.06367 -8.7542,4.06367 -2.5798,0 -5.06136,-0.6 -5.51459,-1.33334 z M 460.32764,199.7943 c -2.85937,-2.85937 -1.83045,-6.13872 2.82975,-9.01888 7.35271,-4.54423 9.05691,-3.83773 8.58235,3.55792 -0.39695,6.18613 -0.51499,6.34249 -5.07876,6.72763 -2.56982,0.21685 -5.41982,-0.35315 -6.33334,-1.26667 z"
       style="fill:#3a83b6;stroke-width:1.33333337" />
    <path
       id="path823"
       d="m 218.77153,487.69686 c -2.42076,-2.36675 -4.98098,-5.81675 -5.68938,-7.66667 -0.74877,-1.95536 -0.97024,-11.45752 -0.529,-22.69684 0.41744,-10.63333 1.09728,-65.53334 1.51074,-122.00001 0.46024,-62.85553 1.27145,-104.32116 2.092,-106.93336 1.97193,-6.27757 8.80469,-11.51505 21.19493,-16.24644 8.43944,-3.22271 11.41506,-3.84444 12.81982,-2.6786 1.52712,1.2674 1.82937,22.74984 1.82937,130.02166 v 128.50342 h 13.32601 13.32602 l 0.34065,-116.33334 0.34065,-116.33334 h 8.66667 8.66667 l 0.34065,116.33334 0.34065,116.33334 h 14.75712 c 13.33607,0 14.71399,0.22469 14.30936,2.33333 -0.8371,4.36236 -27.79438,16.59737 -42.6599,19.36191 -6.0512,1.12533 -8.43943,1.0555 -11.0134,-0.32206 -2.28102,-1.22076 -5.44711,-1.47028 -10.34726,-0.81549 -35.50304,4.7442 -37.93855,4.69613 -43.62237,-0.86085 z m 186.41904,-14.84727 c -5.63937,-3.93207 -5.14369,-2.94603 -22.34154,-44.44406 -15.91955,-38.41354 -20.0975,-47.06682 -26.49271,-54.87134 -5.42936,-6.62582 -15.46152,-13.53418 -19.654,-13.53418 -1.5266,0 -4.14195,-0.95701 -5.8119,-2.12669 -2.38877,-1.67316 -2.94964,-3.16596 -2.63001,-7 l 0.40627,-4.87331 14.66667,0.0767 c 12.22645,0.064 15.77585,0.57501 21.33333,3.07149 13.86821,6.22976 16.85537,10.79544 41.994,64.18511 10.5314,22.36667 19.71451,41.41667 20.40692,42.33334 0.88755,1.175 6.1042,1.66666 17.68366,1.66666 22.91805,0 23.2765,2.2839 2.01916,12.86524 -9.03227,4.49604 -11.06939,4.97318 -23.33334,5.46526 -12.63725,0.50705 -13.72333,0.33953 -18.24651,-2.81426 z M 388.63495,307.66668 c 6.77746,-30.33163 -2.3188,-53.06179 -26.02311,-65.02769 -10.99329,-5.5494 -9.25237,-7.14556 6.95172,-6.37368 15.74704,0.75012 24.21717,4.20784 32.28268,13.17863 6.95719,7.73807 9.52665,15.65574 9.34755,28.80391 -0.10227,7.50527 -0.90431,11.16273 -3.70186,16.88073 -4.02425,8.22528 -12.73412,16.87143 -16.99576,16.87143 -2.50197,0 -2.71741,-0.50159 -1.86122,-4.33333 z m 74.36507,-26.37488 c -3.63336,-1.46044 -3.8438,-4.11487 -0.56168,-7.08514 3.11993,-2.8235 3.76866,-2.77514 4.58372,0.34163 0.36652,1.40156 3.28649,3.751 6.48884,5.22099 l 5.82245,2.6727 -6.66667,0.0279 c -3.66666,0.0153 -8.01666,-0.5148 -9.66666,-1.17801 z m 28.56718,-13.82986 c -0.39497,-1.02926 -0.38532,-3.14404 0.0215,-4.69948 1.36764,-5.22992 -2.34411,-14.43228 -8.41248,-20.85664 -5.77989,-6.11893 -5.95707,-7.07964 -2.12848,-11.54104 2.56301,-2.98664 4.28567,-1.83233 4.28567,2.87169 0,3.38643 0.5325,3.81718 5.55122,4.49032 7.07522,0.94899 11.95716,4.6061 14.27367,10.6925 2.32016,6.09604 1.10848,12.85087 -3.12452,17.41835 -3.49221,3.76817 -9.29809,4.66918 -10.46652,1.6243 z m -2.23385,-48.17143 c 0,-5.62422 -3.07975,-13.47241 -6.87,-17.50694 -3.27893,-3.49026 -2.48231,-5.27467 2.88068,-6.45258 5.18949,-1.1398 12.11869,1.21559 16.12659,5.4818 2.49384,2.65456 3.19606,4.86859 3.19606,10.07675 0,5.66016 -0.56862,7.1638 -3.74101,9.89257 -2.12276,1.82592 -5.43916,3.2179 -7.66667,3.2179 -3.60437,0 -3.92565,-0.38544 -3.92565,-4.7095 z m -26.33333,-20.17354 c -2.54375,-1.02643 -1.99788,-3.6743 1.41926,-6.88455 4.18315,-3.92985 7.58074,-3.78411 7.58074,0.3252 0,6.71381 -3.07078,8.95184 -9,6.55935 z"
       style="fill:#2f75ac;stroke-width:1.33333337" />
    <path
       id="path821"
       d="m 221.72079,483.17535 -3.49134,-3.49135 0.8946,-125.40144 c 0.8335,-116.83631 1.05657,-125.67878 3.26605,-129.46193 2.24416,-3.84252 21.13803,-15.4004 25.27658,-15.46234 1.32198,-0.0197 1.66666,26.56216 1.66666,128.53267 0,70.70669 0.36419,129.5067 0.80932,130.66667 0.66903,1.74347 3.3114,2.10905 15.24348,2.10905 12.6211,0 14.52796,-0.29552 15.1809,-2.3527 0.41069,-1.294 0.66664,-53.52951 0.56877,-116.07894 -0.1168,-74.65106 0.28244,-114.18661 1.16197,-115.06614 0.73696,-0.73696 3.90219,-1.15144 7.03386,-0.92108 l 5.69393,0.41885 0.15388,116.00001 0.15389,116 13.3188,0.38547 c 7.32534,0.212 13.88192,0.94859 14.57019,1.63685 1.90127,1.90127 -9.44359,6.39654 -27.72537,10.98587 -13.99507,3.51321 -16.84612,3.85071 -21.6579,2.56376 -4.2417,-1.13448 -9.40664,-1.02628 -22.02348,0.46141 -23.3996,2.75912 -25.93967,2.63043 -30.09479,-1.52469 z m 188.27922,-12.43581 c -1.46666,-0.6003 -3.72277,-2.26626 -5.01357,-3.70214 -2.45527,-2.73124 -13.39155,-28.84192 -25.84432,-61.70405 -7.79957,-20.58264 -11.60095,-28.0593 -17.93287,-35.27096 -5.62818,-6.41015 -15.51708,-12.3854 -23.57624,-14.24568 -4.83928,-1.11704 -7.17899,-2.38622 -7.75716,-4.20788 -1.26511,-3.986 1.67688,-4.88263 13.43044,-4.09316 28.66419,1.9253 30.50296,3.79446 56.74059,57.67814 10.92839,22.44342 21.23855,43.50621 22.91147,46.80621 l 3.04166,6 15.97835,0.37834 c 8.78808,0.20808 16.54654,0.94654 17.241,1.641 1.61712,1.61712 -13.34761,8.454 -22.95164,10.48584 -8.10373,1.71444 -22.34113,1.84146 -26.26771,0.23434 z M 395.33335,289.58822 c 0,-15.48781 -0.0791,-15.89748 -4.97963,-25.80766 -4.68167,-9.46748 -11.11748,-16.89171 -19.68704,-22.71062 l -3.33333,-2.2634 5.61665,-0.0699 c 14.08369,-0.17536 30.41007,10.84043 33.92207,22.88803 2.65358,9.10286 2.01162,23.32644 -1.401,31.04123 -2.71092,6.12849 -7.55303,12.6726 -9.37014,12.66373 -0.42217,-0.003 -0.76758,-7.08568 -0.76758,-15.74137 z m 100.30947,-34.58821 c -0.4032,-6.41667 -0.57366,-11.83079 -0.37878,-12.03139 1.10688,-1.13943 5.10839,1.88399 6.7853,5.12675 3.17598,6.14168 1.9418,14.53009 -2.58226,17.55089 -2.7797,1.85606 -3.09357,0.98227 -3.82426,-10.64625 z m -1.54891,-33.94251 c -0.29327,-0.94828 -0.85699,-4.03784 -1.25269,-6.86567 -0.39571,-2.82784 -1.94687,-7.4963 -3.447,-10.3744 -1.50015,-2.87808 -2.72754,-5.5144 -2.72754,-5.85848 0,-0.34409 1.84616,-0.62561 4.10256,-0.62561 7.47912,0 12.88911,7.56375 11.92088,16.66667 -0.5132,4.82489 -7.51013,10.56938 -8.59621,7.05749 z m -30.09389,-24.79083 c 0,-1.37997 2.88669,-4.26666 4.26666,-4.26666 0.58667,0 1.06667,1.2 1.06667,2.66666 0,1.77778 -0.88889,2.66667 -2.66667,2.66667 -1.46666,0 -2.66666,-0.48 -2.66666,-1.06667 z"
       style="fill:#135290;stroke-width:1.33333337" />
    <path
       id="path819"
       d="m 225.66667,479.85788 c -2.08386,-2.15621 -2.46401,-246.92042 -0.39197,-252.37033 1.26253,-3.32069 17.7896,-15.48754 21.03782,-15.48754 1.32969,0 1.74425,26.6873 2.01422,129.66667 l 0.33994,129.66667 h 18.26672 c 16.12686,0 18.33649,0.2676 18.86236,2.28431 1.11634,4.28133 -2.60394,5.29633 -20.75338,5.66206 -9.73997,0.19627 -22.20904,0.79467 -27.70904,1.32978 -7.48261,0.728 -10.41956,0.53878 -11.66667,-0.75162 z m 73.33334,-4.72562 c -4.29361,-1.77188 -0.78316,-3.12854 8,-3.0917 5.97215,0.0251 8.90228,0.47124 7.66667,1.16746 -2.60606,1.46838 -13.52231,2.80917 -15.66667,1.92424 z m 126.66667,-9.34862 c -0.91667,-0.36988 -1.66667,-1.52252 -1.66667,-2.5614 0,-1.51194 2.84706,-1.88889 14.26667,-1.88889 15.12856,0 16.74431,1.33533 4.66771,3.85763 -7.29666,1.52396 -14.359,1.76636 -17.26771,0.59266 z M 283.3542,257.22082 c -0.4815,-3.2381 -0.68316,-8.88748 -0.44815,-12.55414 0.42615,-6.64878 0.43983,-6.66667 5.09396,-6.66667 h 4.66667 l -0.0997,6.58883 c -0.0619,4.08289 -0.74709,6.80458 -1.80176,7.15613 -0.93608,0.31203 -2.7895,2.99643 -4.11872,5.96533 l -2.41676,5.398 -0.87544,-5.88748 z"
       style="fill:#042e77;stroke-width:1.33333337" />
  </g>
</svg>
